<svg xmlns="http://www.w3.org/2000/svg" width="32" height="32"><path fill="#21759b" d="M28.625 9.1a14.342 14.342 0 011.757 6.9c0 5.305-2.875 9.941-7.151 12.433l4.393-12.703c.82-2.053 1.093-3.695 1.093-5.152 0-.54-.035-1.04-.093-1.48zm-10.641.139c.863-.04 1.643-.14 1.643-.14.776-.1.685-1.24-.089-1.199 0 0-2.34.18-3.84.18-1.419 0-3.8-.2-3.8-.2-.78-.04-.881 1.14-.1 1.18 0 0 .72.081 1.5.12l2.24 6.14-3.16 9.44L7.139 9.2c.865-.04 1.645-.133 1.645-.133.78-.1.688-1.24-.087-1.195 0 0-2.328.184-3.832.184-.267 0-.584-.011-.92-.02C6.548 4.2 10.98 1.62 16 1.62c3.745 0 7.153 1.429 9.715 3.777-.061-.004-.121-.012-.188-.012-1.413 0-2.416 1.231-2.416 2.552 0 1.187.684 2.191 1.413 3.375.548.96 1.187 2.191 1.187 3.969 0 1.22-.472 2.659-1.095 4.639l-1.433 4.78-5.2-15.48zM16 30.379c-1.412 0-2.775-.204-4.064-.583l4.316-12.541 4.42 12.116c.032.071.067.135.104.199-1.493.524-3.1.812-4.776.812zM1.615 16c0-2.085.448-4.067 1.247-5.853l6.859 18.799c-4.795-2.332-8.104-7.251-8.105-12.945zM16 0C7.18 0 0 7.18 0 16s7.18 16 16 16 16-7.18 16-16S24.82 0 16 0z"/></svg>