<svg xmlns="http://www.w3.org/2000/svg" width="32" height="32"><path fill="#ff7c00" d="M0 .4v31.2h32V.4zm1.333 1.333h29.333v28.533H1.333zM11.1 18.067l-1.056 3.997c-.023.111-.067.136-.197.136H7.89c-.133 0-.153-.044-.133-.197l3.787-13.26c.067-.24.109-.451.131-1.111 0-.088.044-.133.111-.133h2.795c.088 0 .133.024.155.133l4.247 14.392c.023.111 0 .176-.111.176h-2.2c-.111 0-.176-.027-.197-.115l-1.1-4.02zm3.717-2.167c-.373-1.475-1.253-4.704-1.584-6.267h-.023c-.285 1.56-.989 4.2-1.54 6.267zm6-7.411c0-.857.593-1.364 1.364-1.364.813 0 1.364.549 1.364 1.364 0 .88-.573 1.364-1.387 1.364-.8 0-1.347-.484-1.341-1.364zm.15 3.032c0-.107.044-.147.155-.147h2.093c.117 0 .16.044.16.155v10.527c0 .111-.021.155-.153.155h-2.067c-.133 0-.177-.067-.177-.173z"/></svg>